<svg xmlns="http://www.w3.org/2000/svg" version="1.1" xmlns:xlink="http://www.w3.org/1999/xlink" xmlns:svgjs="http://svgjs.com/svgjs" width="1440" height="250" preserveAspectRatio="none" viewBox="0 0 1440 250"><g mask="url(&quot;#SvgjsMask1003&quot;)" fill="none"><rect width="1440" height="250" x="0" y="0" fill="rgba(199, 60, 60, 1)"></rect><path d="M24 250L274 0L502 0L252 250z" fill="url(#SvgjsLinearGradient1004)"></path><path d="M239.60000000000002 250L489.6 0L842.1 0L592.1 250z" fill="url(#SvgjsLinearGradient1004)"></path><path d="M488.20000000000005 250L738.2 0L808.7 0L558.7 250z" fill="url(#SvgjsLinearGradient1004)"></path><path d="M727.8000000000001 250L977.8000000000001 0L1250.8000000000002 0L1000.8000000000001 250z" fill="url(#SvgjsLinearGradient1004)"></path><path d="M1432 250L1182 0L883.5 0L1133.5 250z" fill="url(#SvgjsLinearGradient1005)"></path><path d="M1168.4 250L918.4000000000001 0L655.9000000000001 0L905.9000000000001 250z" fill="url(#SvgjsLinearGradient1005)"></path><path d="M954.8 250L704.8 0L455.79999999999995 0L705.8 250z" fill="url(#SvgjsLinearGradient1005)"></path><path d="M706.1999999999999 250L456.19999999999993 0L385.69999999999993 0L635.6999999999999 250z" fill="url(#SvgjsLinearGradient1005)"></path><path d="M1256.169052486235 250L1440 66.16905248623499L1440 250z" fill="url(#SvgjsLinearGradient1004)"></path><path d="M0 250L183.830947513765 250L 0 66.16905248623499z" fill="url(#SvgjsLinearGradient1005)"></path></g><defs><mask id="SvgjsMask1003"><rect width="1440" height="250" fill="#ffffff"></rect></mask><linearGradient x1="0%" y1="100%" x2="100%" y2="0%" id="SvgjsLinearGradient1004"><stop stop-color="rgba(15, 70, 185, 0.2)" offset="0"></stop><stop stop-opacity="0" stop-color="rgba(15, 70, 185, 0.2)" offset="0.66"></stop></linearGradient><linearGradient x1="100%" y1="100%" x2="0%" y2="0%" id="SvgjsLinearGradient1005"><stop stop-color="rgba(15, 70, 185, 0.2)" offset="0"></stop><stop stop-opacity="0" stop-color="rgba(15, 70, 185, 0.2)" offset="0.66"></stop></linearGradient></defs></svg>